<?xml version="1.0" encoding="UTF-8" standalone="no"?>
<svg
   xmlns:dc="http://purl.org/dc/elements/1.1/"
   xmlns:cc="http://creativecommons.org/ns#"
   xmlns:rdf="http://www.w3.org/1999/02/22-rdf-syntax-ns#"
   xmlns:svg="http://www.w3.org/2000/svg"
   xmlns="http://www.w3.org/2000/svg"
   viewBox="0 0 420.76532 437.10666"
   height="437.10666"
   width="420.76532"
   xml:space="preserve"
   id="svg2"
   version="1.1"><metadata
     id="metadata8"><rdf:RDF><cc:Work
         rdf:about=""><dc:format>image/svg+xml</dc:format><dc:type
           rdf:resource="http://purl.org/dc/dcmitype/StillImage" /></cc:Work></rdf:RDF></metadata><defs
     id="defs6"><clipPath
       id="clipPath18"
       clipPathUnits="userSpaceOnUse"><path
         id="path16"
         d="M 0,327.83 H 315.574 V 0 H 0 Z" /></clipPath><clipPath
       id="clipPath58"
       clipPathUnits="userSpaceOnUse"><path
         id="path56"
         d="M 0,327.83 H 315.574 V 0 H 0 Z" /></clipPath></defs><g
     transform="matrix(1.3333333,0,0,-1.3333333,0,437.10667)"
     id="g10"><g
       id="g12"><g
         clip-path="url(#clipPath18)"
         id="g14"><g
           transform="translate(163.6442,181.0155)"
           id="g20"><path
             id="path22"
             style="fill:#ed1c24;fill-opacity:1;fill-rule:nonzero;stroke:none"
             d="m 0,0 c -0.335,-0.115 -0.678,-0.21 -1.003,-0.349 -0.834,-0.354 -1.513,-0.935 -2.183,-1.528 -0.662,-0.586 -1.299,-1.212 -2.022,-1.714 -2.121,-1.474 -4.849,-0.972 -6.305,1.11 -1.809,2.584 -0.253,6.322 2.849,6.864 C -7.142,4.649 -5.83,4.207 -4.675,3.241 -3.96,2.643 -3.289,1.995 -2.581,1.388 -1.86,0.77 -1.056,0.296 -0.119,0.081 -0.075,0.07 -0.031,0.065 0.042,0.054 -0.041,0.564 -0.22,1.017 -0.449,1.45 -0.799,2.114 -1.28,2.68 -1.775,3.237 -2.327,3.857 -2.906,4.458 -3.402,5.12 -4.66,6.795 -4.68,8.902 -3.504,10.543 c 1.022,1.425 2.886,2.122 4.589,1.714 C 2.854,11.833 4.181,10.419 4.466,8.662 4.709,7.158 4.247,5.863 3.284,4.728 2.676,4.011 2.027,3.331 1.417,2.616 0.821,1.918 0.369,1.137 0.161,0.23 0.149,0.18 0.145,0.128 0.135,0.056 c 0.549,0.097 1.036,0.292 1.501,0.55 0.71,0.395 1.316,0.925 1.906,1.475 0.723,0.672 1.426,1.368 2.309,1.838 2.721,1.449 5.976,-0.118 6.541,-3.147 0.448,-2.4 -1.305,-4.823 -3.711,-5.149 -1.32,-0.178 -2.512,0.134 -3.547,0.953 -0.741,0.588 -1.429,1.243 -2.141,1.868 -0.742,0.652 -1.549,1.194 -2.514,1.461 -0.104,0.028 -0.21,0.045 -0.32,0.068 0.086,-3.278 1.662,-8.755 7.322,-11.19 H -7.254 c 4.736,2.202 6.876,6.114 7.311,11.139 C 0.038,-0.052 0.019,-0.026 0,0" /></g><g
           transform="translate(147.2003,149.472)"
           id="g24"><path
             id="path26"
             style="fill:#ed1c24;fill-opacity:1;fill-rule:nonzero;stroke:none"
             d="M 0,0 H 0.936 V -1.662 H -18.855 V 0 h 1.808 c 1.824,0 3.062,0.472 3.714,1.417 0.651,0.946 0.977,2.707 0.977,5.283 v 46.754 c 0,1.825 -0.359,3.089 -1.075,3.79 -0.717,0.701 -1.954,1.051 -3.714,1.051 h -2.296 v 1.662 l 12.216,1.221 h 1.662 V 4.988 c 0,-1.924 0.393,-3.236 1.181,-3.937 C -3.595,0.35 -2.134,0 0,0" /></g><g
           transform="translate(158.7038,163.2865)"
           id="g28"><path
             id="path30"
             style="fill:#ed1c24;fill-opacity:1;fill-rule:nonzero;stroke:none"
             d="m 0,0 v -1.662 c -2.008,-0.296 -3.012,-1.331 -3.012,-3.106 0,-0.69 0.179,-1.462 0.538,-2.316 l 8.509,-20.036 6.176,18.729 c 0.489,1.539 0.733,2.767 0.733,3.684 0,1.899 -1.187,2.914 -3.562,3.045 V 0 H 21.94 v -1.662 c -1.893,0 -3.459,-0.644 -4.698,-1.932 -1.24,-1.289 -2.366,-3.417 -3.377,-6.385 L -0.243,-51.758 c -1.372,-3.971 -3.12,-7.112 -5.244,-9.424 -2.124,-2.31 -4.298,-3.466 -6.52,-3.466 -1.307,0 -2.777,0.506 -4.411,1.515 l 2.307,6.108 c 1.243,-0.554 2.388,-0.83 3.436,-0.83 2.127,0 3.885,0.667 5.277,2.003 1.39,1.336 2.641,3.567 3.754,6.694 l 4.549,12.852 -12.719,29.318 c -0.946,2.137 -1.884,3.551 -2.813,4.241 -0.93,0.691 -2.389,1.052 -4.378,1.085 V 0 Z" /></g><g
           transform="translate(202.0573,184.3612)"
           id="g32"><path
             id="path34"
             style="fill:#ed1c24;fill-opacity:1;fill-rule:nonzero;stroke:none"
             d="m 0,0 v -10.896 h -2.003 c -0.327,2.736 -1.304,4.91 -2.933,6.523 -1.628,1.612 -3.599,2.418 -5.912,2.418 -1.759,0 -3.176,-0.439 -4.251,-1.319 -1.075,-0.879 -1.612,-2.052 -1.612,-3.518 0,-1.434 0.496,-2.696 1.49,-3.787 0.993,-1.092 3.152,-2.403 6.474,-3.934 4.3,-1.954 7.142,-3.828 8.527,-5.619 1.385,-1.792 2.077,-3.942 2.077,-6.45 0,-2.965 -1.108,-5.53 -3.323,-7.696 -2.216,-2.166 -4.838,-3.25 -7.867,-3.25 -1.564,0 -3.633,0.57 -6.206,1.711 -1.401,0.618 -2.329,0.928 -2.785,0.928 -0.619,0 -1.141,-0.228 -1.564,-0.684 -0.424,-0.457 -0.668,-1.026 -0.733,-1.71 h -1.71 v 12.069 h 1.71 c 0.619,-3.175 1.987,-5.695 4.105,-7.561 2.117,-1.866 4.544,-2.798 7.281,-2.798 1.759,0 3.232,0.587 4.422,1.761 1.188,1.175 1.783,2.627 1.783,4.357 0,1.663 -0.548,3.107 -1.643,4.331 -1.096,1.224 -3.467,2.636 -7.113,4.238 -4.102,1.797 -6.804,3.478 -8.105,5.043 -1.301,1.565 -1.951,3.455 -1.951,5.673 0,2.77 1.066,5.158 3.2,7.163 2.133,2.005 4.667,3.007 7.599,3.007 1.368,0 2.85,-0.326 4.446,-0.977 1.14,-0.457 2.069,-0.684 2.785,-0.684 0.945,0 1.645,0.554 2.102,1.661 z" /></g><g
           transform="translate(93.4933,174.5394)"
           id="g36"><path
             id="path38"
             style="fill:#ed1c24;fill-opacity:1;fill-rule:nonzero;stroke:none"
             d="M 0,0 H 16.163 L 8.036,24.286 Z m 18.175,-26.729 v 1.662 c 3.286,0 4.929,1.142 4.929,3.429 0,0.654 -0.146,1.388 -0.439,2.205 L 17.34,-3.519 H -1.061 l -3.912,-11.509 c -0.977,-2.906 -1.465,-5.012 -1.465,-6.318 0,-2.416 1.51,-3.657 4.53,-3.721 v -1.662 h -14.806 v 1.662 c 2.12,0.293 3.766,0.995 4.94,2.105 1.174,1.11 2.365,3.412 3.571,6.906 l 15.85,47.28 h 5.9 l 16.642,-49.386 c 0.978,-2.905 1.997,-4.783 3.057,-5.632 1.059,-0.849 2.763,-1.273 5.11,-1.273 v -1.662 z" /></g><g
           transform="translate(93.4933,174.5394)"
           id="g40"><path
             id="path42"
             style="fill:#ed1c24;fill-opacity:1;fill-rule:nonzero;stroke:none"
             d="M 0,0 H 16.163 L 8.036,24.286 Z m 18.175,-26.729 v 1.662 c 3.286,0 4.929,1.142 4.929,3.429 0,0.654 -0.146,1.388 -0.439,2.205 L 17.34,-3.519 H -1.061 l -3.912,-11.509 c -0.977,-2.906 -1.465,-5.012 -1.465,-6.318 0,-0.446 0.024,-0.975 0.271,-1.562 l -3.574,3.215 c 0,0 1.266,2.721 1.538,3.637 3.626,10.817 7.252,21.633 10.879,32.45 l 11.675,12.447 15.838,-47.003 c 0.978,-2.905 1.997,-4.783 3.057,-5.632 1.059,-0.849 2.763,-1.273 5.11,-1.273 v -1.662 z" /></g><g
           transform="translate(215.5275,195.4046)"
           id="g44"><path
             id="path46"
             style="fill:#ed1c24;fill-opacity:1;fill-rule:nonzero;stroke:none"
             d="m 0,0 h 1.71 v -11.923 h 12.314 v -2.59 H 1.71 v -22.82 c 0,-2.377 0.554,-4.21 1.662,-5.497 1.107,-1.287 2.688,-1.93 4.74,-1.93 2.41,0 4.609,1.14 6.596,3.421 l 1.124,-1.32 c -3.095,-3.942 -6.662,-5.912 -10.701,-5.912 -3.029,0 -5.49,0.961 -7.379,2.883 -1.889,1.921 -2.834,4.397 -2.834,7.427 v 23.748 h -6.694 v 1.711 C -6.89,-10.359 -2.964,-6.092 0,0" /></g><g
           transform="translate(219.7838,180.892)"
           id="g48"><path
             id="path50"
             style="fill:#ed1c24;fill-opacity:1;fill-rule:nonzero;stroke:none"
             d="m 0,0 h -2.546 v -22.82 c 0.124,-4.487 1.74,-5.586 1.74,-5.586 l -4.24,-3.987 c 0,0 -1.005,0.757 -1.458,1.218 -1.89,1.921 -2.834,4.397 -2.834,7.427 V 0 h -6.695 v 1.71 c 2.89,1.445 7.661,6.249 7.661,6.249 z" /></g></g></g><g
       id="g52"><g
         clip-path="url(#clipPath58)"
         id="g54"><g
           transform="translate(89.1261,149.9032)"
           id="g60"><path
             id="path62"
             style="fill:#ed1c24;fill-opacity:1;fill-rule:nonzero;stroke:none"
             d="M 0,0 C 0,0 1.046,-0.439 2.459,-0.431 V -2.093 H 2.193 Z" /></g></g></g></g></svg>