<svg id="Layer_1" data-name="Layer 1" xmlns="http://www.w3.org/2000/svg" viewBox="0 0 312.94 93.47"><defs><style>.cls-1{fill:#fff;}.cls-1,.cls-2{stroke:#fff;stroke-miterlimit:10;}.cls-2{fill:none;stroke-width:5px;}</style></defs><title>AlystSVG1</title><path class="cls-1" d="M172,277.08h1.2a7.83,7.83,0,0,0,5.76-2.56q2.5-2.56,2.5-7.2v-67c0-3.69-.93-6.27-2.8-7.71a11.13,11.13,0,0,0-6.66-2.29v-1h28.39v1a11.6,11.6,0,0,0-6.63,2.23c-1.93,1.4-2.89,4-2.89,7.77v64.81c0,3.85,1,6.53,2.89,8s5.08,2.23,9.46,2.23h7.66a21.85,21.85,0,0,0,8-1.2,10.48,10.48,0,0,0,4.73-3.68,35.43,35.43,0,0,0,3.56-7h1l-3.37,14.59H172Z" transform="translate(-62.29 -187.06)"/><path class="cls-1" d="M277,189.93v.81a11.38,11.38,0,0,0-5.59,1.48,15.45,15.45,0,0,0-3.82,3,43.12,43.12,0,0,0-2.95,3.73l-16.37,24.65v28.06a6.9,6.9,0,0,0,2.26,5.64,8.67,8.67,0,0,0,5.45,2V260H233.8v-.76a7.93,7.93,0,0,0,5.35-1.93q2-1.83,2-5.69V224.76L223.29,198q-2.85-4.32-5.12-5.76a12,12,0,0,0-6.11-1.52v-.81h24.88v.81q-3.81.15-4.87,1.64a4.94,4.94,0,0,0-1.08,2.83q0,1.53,1.86,4.29l14.6,21.64,12.94-19.5q3-4.38,2.95-6.71a3.73,3.73,0,0,0-.78-2.52,4,4,0,0,0-1.59-1.19,14.39,14.39,0,0,0-1.72-.48v-.81Z" transform="translate(-62.29 -187.06)"/><path class="cls-1" d="M314.27,206.31h-1a19.29,19.29,0,0,0-5.63-11.3q-4.8-4.86-12.63-4.85a17.22,17.22,0,0,0-9.11,2.41,16.27,16.27,0,0,0-6.14,6.57,20.24,20.24,0,0,0-2.17,9.52,19.77,19.77,0,0,0,1.29,7.39,16.29,16.29,0,0,0,3.83,5.69,35.16,35.16,0,0,0,6,4.62q3.44,2.13,9.28,5.39a69.5,69.5,0,0,1,15.19,10.7q5.43,5.34,5.43,14.62A22.28,22.28,0,0,1,315.68,268a22.55,22.55,0,0,1-8.83,8.65Q300.94,280,292.2,280a36.39,36.39,0,0,1-9.7-1.18,50.19,50.19,0,0,1-8.56-3.29,9.81,9.81,0,0,0-2.47-.6,1.6,1.6,0,0,0-1.66.91,27.51,27.51,0,0,0-1.06,3.91h-1V257.55h1q2.17,9.76,8.44,14.77a23.67,23.67,0,0,0,15.25,5q6.75,0,10.83-2.53a13.77,13.77,0,0,0,5.63-6.15,18,18,0,0,0,1.57-7.23,16.92,16.92,0,0,0-4.55-12.21q-4.56-4.72-13.84-9.67-6.39-3.5-9.46-5.43a37.84,37.84,0,0,1-6.24-5,23,23,0,0,1-5-7.27,23.28,23.28,0,0,1-1.87-9.61,23.61,23.61,0,0,1,3.31-12A24.81,24.81,0,0,1,282.2,191a27.41,27.41,0,0,1,13.8-3.47,39.3,39.3,0,0,1,12,2.16,29.32,29.32,0,0,0,5.32,1l1,.07Z" transform="translate(-62.29 -187.06)"/><path class="cls-1" d="M374.73,204.61H374q-.51-6.72-3.92-8.71a16.51,16.51,0,0,0-8.41-2H348v57.78q0,7.33,7.47,7.57V260H333.53v-.75a8.46,8.46,0,0,0,5.21-1.8c1.42-1.13,2.13-3.06,2.13-5.77V193.91H327.18a16.34,16.34,0,0,0-8.38,2c-2.26,1.32-3.58,5.93-3.95,10.42h-.75V190.82l.75.06c1.45.11,6.57.32,7.66.32h44.56a8,8,0,0,0,6.91-3.41h.75Z" transform="translate(-62.29 -187.06)"/><path class="cls-1" d="M154.36,189.25l25.46,75.16a37.73,37.73,0,0,0,3.82,8.46,8.75,8.75,0,0,0,3.43,3.3,14.51,14.51,0,0,0,4.19.92v1H163.48v-1a20.19,20.19,0,0,0,6.59-.83c1.54-.56,2.31-2.06,2.31-4.53a18.87,18.87,0,0,0-1.1-5.42,1.71,1.71,0,0,1-.23-.71l-7.57-23.29H134l-6.76,21.56a25.19,25.19,0,0,0-1.39,7.09q0,3.69,1.79,4.91a9,9,0,0,0,5.09,1.22v1h-20v-1a10,10,0,0,0,6.84-3.36,25.49,25.49,0,0,0,4.47-9l24-75.52ZM135,239.16H162.1l-13.82-41.52-.45.45Z" transform="translate(-62.29 -187.06)"/><path class="cls-2" d="M91.28,259.74a87.78,87.78,0,0,0-25-31.39,87.84,87.84,0,0,0,25-31.4,88,88,0,0,0,25,31.4A87.72,87.72,0,0,0,91.28,259.74Z" transform="translate(-62.29 -187.06)"/></svg>