<svg xmlns="http://www.w3.org/2000/svg" xmlns:xlink="http://www.w3.org/1999/xlink" width="26" height="26" viewBox="0 0 26 26">
  <defs>
    <linearGradient id="linear-gradient" x1="0.5" x2="0.5" y2="1" gradientUnits="objectBoundingBox">
      <stop offset="0" stop-color="#00e5ff"/>
      <stop offset="1" stop-color="#09f"/>
    </linearGradient>
  </defs>
  <g id="Group_256" data-name="Group 256" transform="translate(-15 -70)">
    <circle id="Ellipse_15" data-name="Ellipse 15" cx="13" cy="13" r="13" transform="translate(15 70)" fill="url(#linear-gradient)"/>
    <g id="_216660_link_icon" data-name="216660_link_icon" transform="translate(20 76)">
      <path id="Path_401" data-name="Path 401" d="M5.658,11.44l-.782.725a1.84,1.84,0,0,1-2.457,0,1.513,1.513,0,0,1,0-2.256L5.3,7.245c.6-.552,1.718-1.365,2.536-.608a1.006,1.006,0,0,0,1.354,0,.852.852,0,0,0,0-1.263c-1.39-1.287-3.444-1.049-5.233.607L1.07,8.641a3.216,3.216,0,0,0,0,4.792,3.786,3.786,0,0,0,2.577.987,3.788,3.788,0,0,0,2.578-.987l.782-.725a.852.852,0,0,0,0-1.263A1.007,1.007,0,0,0,5.658,11.44ZM14.379,1.089A3.589,3.589,0,0,0,9.417.912l-.974.9a.852.852,0,0,0,0,1.263,1.006,1.006,0,0,0,1.354,0l.974-.9a1.625,1.625,0,0,1,2.265.178,1.513,1.513,0,0,1,0,2.256L9.96,7.456c-1.4,1.3-2.062.69-2.343.43a1.006,1.006,0,0,0-1.354,0,.852.852,0,0,0,0,1.263,3.123,3.123,0,0,0,2.151.893,4.342,4.342,0,0,0,2.89-1.322l3.07-2.843a3.216,3.216,0,0,0,0-4.792Z" transform="translate(0 0)" fill="#fff"/>
    </g>
  </g>
</svg>
