<svg xmlns="http://www.w3.org/2000/svg" width="89" height="21" viewBox="0 0 89 21">
  <g id="Group_249" data-name="Group 249" transform="translate(-993 -625)">
    <rect id="Rectangle_220" data-name="Rectangle 220" width="89" height="21" rx="10.5" transform="translate(993 625)" fill="#fec133"/>
    <path id="LIVE" d="M3.49.08a6.755,6.755,0,0,1-1.27-.1,2.012,2.012,0,0,1-.83-.34A1.491,1.491,0,0,1,.905-1,3.583,3.583,0,0,1,.68-2Q.62-2.6.62-3.44T.68-4.88a3.583,3.583,0,0,1,.225-1,1.491,1.491,0,0,1,.485-.64,2.012,2.012,0,0,1,.83-.34,6.755,6.755,0,0,1,1.27-.1q.29,0,.605.02t.605.06a4.723,4.723,0,0,1,.49.09V-5.7l-.52-.055Q4.42-5.78,4.2-5.79T3.84-5.8A7.213,7.213,0,0,0,3-5.76a1.25,1.25,0,0,0-.525.165.715.715,0,0,0-.285.38,2.683,2.683,0,0,0-.12.685q-.03.43-.03,1.09t.03,1.085a2.7,2.7,0,0,0,.12.69.715.715,0,0,0,.285.38A1.25,1.25,0,0,0,3-1.12a7.213,7.213,0,0,0,.84.04q.33,0,.72-.03t.67-.07V-.07q-.22.04-.52.075T4.1.06Q3.78.08,3.49.08Zm5.75,0a7.9,7.9,0,0,1-1.385-.1A2,2,0,0,1,7-.355,1.321,1.321,0,0,1,6.55-1a3.913,3.913,0,0,1-.18-1q-.04-.6-.04-1.44t.04-1.44a3.913,3.913,0,0,1,.18-1.005A1.321,1.321,0,0,1,7-6.525a2,2,0,0,1,.855-.335,7.9,7.9,0,0,1,1.385-.1,7.9,7.9,0,0,1,1.385.1,2,2,0,0,1,.855.335,1.352,1.352,0,0,1,.455.64A3.759,3.759,0,0,1,12.12-4.88q.04.6.04,1.44T12.12-2a3.759,3.759,0,0,1-.185,1,1.351,1.351,0,0,1-.455.64,2,2,0,0,1-.855.335A7.9,7.9,0,0,1,9.24.08Zm0-1.16a6.855,6.855,0,0,0,.715-.03.943.943,0,0,0,.435-.14.64.64,0,0,0,.235-.36,2.977,2.977,0,0,0,.1-.69q.02-.44.02-1.14t-.02-1.14a2.977,2.977,0,0,0-.1-.69.64.64,0,0,0-.235-.36.943.943,0,0,0-.435-.14A6.855,6.855,0,0,0,9.24-5.8a6.733,6.733,0,0,0-.7.03.943.943,0,0,0-.435.14.64.64,0,0,0-.235.36,2.976,2.976,0,0,0-.095.69q-.02.44-.02,1.14T7.77-2.3a2.976,2.976,0,0,0,.095.69.64.64,0,0,0,.235.36.943.943,0,0,0,.435.14A6.733,6.733,0,0,0,9.24-1.08ZM13.6,0V-6.88h1.95l1.7,4.54h.06L19-6.88h1.94V0H19.57V-4.79h-.05L17.74,0h-.98L14.98-4.79h-.05V0Zm8.99,0V-6.88h1.42V0Zm3.06,0V-6.88h1.47l2.71,4.24h.05V-6.88h1.36V0H29.89L27.06-4.47h-.05V0ZM35.7.08a6.938,6.938,0,0,1-1.275-.1,2.294,2.294,0,0,1-.87-.335A1.561,1.561,0,0,1,33.02-.99,3.3,3.3,0,0,1,32.755-2,11.956,11.956,0,0,1,32.68-3.44a11.956,11.956,0,0,1,.075-1.445,3.2,3.2,0,0,1,.27-1.005,1.6,1.6,0,0,1,.54-.635,2.29,2.29,0,0,1,.865-.335,6.855,6.855,0,0,1,1.27-.1q.33,0,.735.03t.805.075q.4.045.74.115v1.09q-.35-.05-.68-.08t-.6-.05q-.27-.02-.45-.02-.57,0-.95.025a1.783,1.783,0,0,0-.62.135.751.751,0,0,0-.365.36,2.119,2.119,0,0,0-.175.695,10.63,10.63,0,0,0-.05,1.145q0,.62.035,1.04a2.826,2.826,0,0,0,.13.69.883.883,0,0,0,.28.415,1.049,1.049,0,0,0,.48.2,4.509,4.509,0,0,0,.735.05q.16,0,.335,0t.33-.015q.155-.01.255-.02v-1.7H35.52V-3.91h2.49V-.14q-.34.07-.76.115T36.43.05Q36.03.08,35.7.08Zm8.76,0q-.38,0-.835-.02T42.74.005q-.43-.035-.79-.075V-1.2l.755.06q.385.03.735.045t.6.015a5.293,5.293,0,0,0,.79-.045,1.126,1.126,0,0,0,.42-.135.428.428,0,0,0,.15-.175.734.734,0,0,0,.05-.23q.01-.135.01-.305a2.38,2.38,0,0,0-.025-.38.569.569,0,0,0-.085-.235.35.35,0,0,0-.195-.125,1.869,1.869,0,0,0-.345-.06l-1.54-.19a2.345,2.345,0,0,1-.755-.21,1.215,1.215,0,0,1-.465-.4,1.556,1.556,0,0,1-.235-.59,4.124,4.124,0,0,1-.065-.77,2.55,2.55,0,0,1,.19-1.08,1.391,1.391,0,0,1,.535-.61A2.1,2.1,0,0,1,43.29-6.9a7.465,7.465,0,0,1,1.02-.065q.4,0,.82.025t.79.065a5.038,5.038,0,0,1,.62.1v1.1q-.25-.04-.58-.07t-.69-.045q-.36-.015-.68-.015a6.2,6.2,0,0,0-.745.035,1.264,1.264,0,0,0-.425.115.4.4,0,0,0-.205.26,1.914,1.914,0,0,0-.035.4,1.945,1.945,0,0,0,.04.455.3.3,0,0,0,.19.215,2.049,2.049,0,0,0,.47.1l1.54.18a3,3,0,0,1,.52.1,1.253,1.253,0,0,1,.43.22,1.081,1.081,0,0,1,.31.42,1.376,1.376,0,0,1,.11.325,4.042,4.042,0,0,1,.065.415,4.747,4.747,0,0,1,.025.51,3.483,3.483,0,0,1-.115.97,1.559,1.559,0,0,1-.325.62,1.361,1.361,0,0,1-.515.35,2.472,2.472,0,0,1-.675.155Q44.88.08,44.46.08Zm6.49,0a7.9,7.9,0,0,1-1.385-.1,2,2,0,0,1-.855-.335A1.321,1.321,0,0,1,48.26-1a3.913,3.913,0,0,1-.18-1q-.04-.6-.04-1.44t.04-1.44a3.913,3.913,0,0,1,.18-1.005,1.321,1.321,0,0,1,.45-.64,2,2,0,0,1,.855-.335,9.641,9.641,0,0,1,2.77,0,2,2,0,0,1,.855.335,1.351,1.351,0,0,1,.455.64A3.759,3.759,0,0,1,53.83-4.88q.04.6.04,1.44T53.83-2a3.759,3.759,0,0,1-.185,1,1.351,1.351,0,0,1-.455.64,2,2,0,0,1-.855.335A7.9,7.9,0,0,1,50.95.08Zm0-1.16a6.855,6.855,0,0,0,.715-.03.943.943,0,0,0,.435-.14.64.64,0,0,0,.235-.36,2.977,2.977,0,0,0,.095-.69q.02-.44.02-1.14t-.02-1.14a2.977,2.977,0,0,0-.095-.69.64.64,0,0,0-.235-.36.943.943,0,0,0-.435-.14,6.855,6.855,0,0,0-.715-.03,6.733,6.733,0,0,0-.7.03.943.943,0,0,0-.435.14.64.64,0,0,0-.235.36,2.977,2.977,0,0,0-.095.69q-.02.44-.02,1.14t.02,1.14a2.977,2.977,0,0,0,.095.69.64.64,0,0,0,.235.36.943.943,0,0,0,.435.14A6.733,6.733,0,0,0,50.95-1.08ZM58.02.08a7.9,7.9,0,0,1-1.385-.1,2,2,0,0,1-.855-.335A1.321,1.321,0,0,1,55.33-1a3.913,3.913,0,0,1-.18-1q-.04-.6-.04-1.44t.04-1.44a3.913,3.913,0,0,1,.18-1.005,1.321,1.321,0,0,1,.45-.64,2,2,0,0,1,.855-.335,9.641,9.641,0,0,1,2.77,0,2,2,0,0,1,.855.335,1.351,1.351,0,0,1,.455.64A3.759,3.759,0,0,1,60.9-4.88q.04.6.04,1.44T60.9-2a3.759,3.759,0,0,1-.185,1,1.351,1.351,0,0,1-.455.64,2,2,0,0,1-.855.335A7.9,7.9,0,0,1,58.02.08Zm0-1.16a6.855,6.855,0,0,0,.715-.03.943.943,0,0,0,.435-.14.64.64,0,0,0,.235-.36A2.977,2.977,0,0,0,59.5-2.3q.02-.44.02-1.14T59.5-4.58a2.977,2.977,0,0,0-.095-.69.64.64,0,0,0-.235-.36.943.943,0,0,0-.435-.14,6.855,6.855,0,0,0-.715-.03,6.733,6.733,0,0,0-.7.03.943.943,0,0,0-.435.14.64.64,0,0,0-.235.36,2.977,2.977,0,0,0-.095.69q-.02.44-.02,1.14t.02,1.14a2.977,2.977,0,0,0,.095.69.64.64,0,0,0,.235.36.943.943,0,0,0,.435.14A6.733,6.733,0,0,0,58.02-1.08ZM62.38,0V-6.88h1.47l2.71,4.24h.05V-6.88h1.36V0H66.62L63.79-4.47h-.05V0Z" transform="translate(1003.38 639)" fill="#fff"/>
  </g>
</svg>
