<svg xmlns="http://www.w3.org/2000/svg" width="280.736" height="54" viewBox="0 0 280.736 54"><path d="M88.638,82.054,92.6,75.325l10.689,16.649,0,3.2-.035-21.986a1.657,1.657,0,0,0-.766-1.319L83.252,60.793a1.7,1.7,0,0,0-1.47.007,1.638,1.638,0,0,0-.172.1l-.067.042L62.863,71.767l-.072.033a1.691,1.691,0,0,0-.276.16,1.656,1.656,0,0,0-.689,1.245l.029,17.917,9.957-15.432c1.253-2.046,3.985-2.706,6.52-2.669l2.976.078L63.773,101.218l2.067,1.19L83.583,73.128l7.843-.029-17.7,30.018L81.1,107.36l.881.506a1.691,1.691,0,0,0,1.188.023l19.515-11.309-3.731,2.162Zm1.513,21.792L82.7,92.155l4.547-7.716,9.783,15.419Z" transform="translate(-58.505 -57.311)" fill="#2d374b"/><path d="M124.655,140l7.449,11.691,6.881-3.988L129.2,132.287Z" transform="translate(-100.458 -105.159)" fill="#28a0f0"/><path d="M157.18,124.7l0-3.2-10.689-16.649-3.966,6.729,10.319,16.689,3.731-2.162a1.654,1.654,0,0,0,.611-1.2Z" transform="translate(-112.387 -86.843)" fill="#28a0f0"/><path d="M51.832,123.082l5.269,3.036L74.634,98l-2.976-.078c-2.535-.036-5.267.623-6.52,2.67l-9.957,15.432-3.35,5.147v1.913Z" transform="translate(-51.832 -82.211)" fill="#fff"/><path d="M99.495,98.16l-7.843.029L73.909,127.468l6.2,3.571,1.686-2.86Z" transform="translate(-66.573 -82.372)" fill="#fff"/><path d="M99.93,66.392a5,5,0,0,0-2.345-4.016l-19.5-11.212a5.072,5.072,0,0,0-4.473,0c-.163.082-18.96,10.984-18.96,10.984a4.99,4.99,0,0,0-2.823,4.234V89.6l3.35-5.147-.029-17.917a1.694,1.694,0,0,1,.024-.194,1.65,1.65,0,0,1,.666-1.052c.089-.063,19.207-11.13,19.268-11.16a1.7,1.7,0,0,1,1.47-.007L95.824,65.2a1.657,1.657,0,0,1,.766,1.319V88.709a1.618,1.618,0,0,1-.575,1.2l-3.731,2.162-1.925,1.116-6.881,3.988L76.5,101.222a1.691,1.691,0,0,1-1.188-.023L67.056,96.45l-1.687,2.86,7.42,4.272.643.364c.278.156.467.26.534.292a4.818,4.818,0,0,0,1.97.405,4.96,4.96,0,0,0,1.817-.342L98.021,92.565a4.955,4.955,0,0,0,1.909-3.733Z" transform="translate(-51.832 -50.644)" fill="#96bedc"/><g transform="translate(57.612 18.758)"><path d="M236.643,107.1a2.836,2.836,0,0,1,1.476.358,3.645,3.645,0,0,1,1.177,1.4l7.635,13.862a.481.481,0,0,1,.058.381c-.038.1-.15.15-.334.15h-2.929a.529.529,0,0,1-.531-.3l-1.637-2.976h-10.84l-1.592,2.976a.556.556,0,0,1-.53.3h-3c-.2,0-.319-.049-.358-.15a.477.477,0,0,1,.057-.381l7.566-13.862a3.89,3.89,0,0,1,1.13-1.4,2.325,2.325,0,0,1,1.292-.358Zm-4.475,10.195H240.1l-3.667-6.758a.283.283,0,0,0-.254-.161h-.138a.282.282,0,0,0-.254.161Z" transform="translate(-225.218 -107.099)" fill="#fff"/><path d="M337.173,107.1a5.111,5.111,0,0,1,3.806,1.2,4.938,4.938,0,0,1,1.153,3.552v1.315a5.386,5.386,0,0,1-.807,3.137,3.856,3.856,0,0,1-2.63,1.476l3.944,4.89a.364.364,0,0,1,.069.346q-.047.231-.369.231h-2.975a.874.874,0,0,1-.415-.069.807.807,0,0,1-.23-.231l-3.645-4.8h-7.45v4.59a.448.448,0,0,1-.507.507h-2.491q-.53,0-.531-.507V107.79a.612.612,0,0,1,.692-.692h12.386Zm-9.549,8.234h8.835a2.233,2.233,0,0,0,1.66-.507,2.164,2.164,0,0,0,.485-1.545v-.969a2.164,2.164,0,0,0-.485-1.545,2.235,2.235,0,0,0-1.66-.507h-8.535q-.3,0-.3.277Z" transform="translate(-291.241 -107.098)" fill="#fff"/><path d="M427.919,107.1a4.863,4.863,0,0,1,3.379.946,3.751,3.751,0,0,1,1,2.86v1.107a3.3,3.3,0,0,1-1.476,2.929,3.181,3.181,0,0,1,1.591,2.976v1.338a6.137,6.137,0,0,1-.208,1.661,3.071,3.071,0,0,1-.68,1.257,3.028,3.028,0,0,1-1.257.8,5.869,5.869,0,0,1-1.938.277h-13.7a.612.612,0,0,1-.693-.692V107.79a.612.612,0,0,1,.693-.692h13.285Zm-10.448,6.712h9.457a2.56,2.56,0,0,0,1.569-.346,1.247,1.247,0,0,0,.415-1.015v-.784a1.288,1.288,0,0,0-.4-1.05,2.041,2.041,0,0,0-1.3-.334H417.77a.265.265,0,0,0-.3.3Zm0,2.514v3.437a.265.265,0,0,0,.3.3h9.457a2.031,2.031,0,0,0,1.315-.335,1.335,1.335,0,0,0,.392-1.073v-.877a1.356,1.356,0,0,0-.426-1.084,2.489,2.489,0,0,0-1.58-.369h-9.457Z" transform="translate(-351.234 -107.098)" fill="#fff"/><path d="M507.531,107.1a.449.449,0,0,1,.507.507v15.131a.448.448,0,0,1-.507.507h-2.491q-.53,0-.53-.507V107.606q0-.507.53-.507Z" transform="translate(-411.708 -107.099)" fill="#fff"/><path d="M567.243,107.1q.53,0,.531.507v2.26a.469.469,0,0,1-.531.531H560v12.34a.448.448,0,0,1-.507.507h-2.514a.448.448,0,0,1-.507-.507V110.4H549.23a.469.469,0,0,1-.531-.531v-2.26q0-.507.531-.507Z" transform="translate(-441.214 -107.099)" fill="#fff"/><path d="M652.683,107.1a5.111,5.111,0,0,1,3.806,1.2,4.938,4.938,0,0,1,1.153,3.552v1.315a5.386,5.386,0,0,1-.807,3.137,3.856,3.856,0,0,1-2.63,1.476l3.944,4.89a.365.365,0,0,1,.069.346q-.047.231-.369.231h-2.976a.874.874,0,0,1-.415-.069.808.808,0,0,1-.23-.231l-3.645-4.8h-7.45v4.59a.448.448,0,0,1-.507.507h-2.491q-.53,0-.531-.507V107.79a.612.612,0,0,1,.692-.692h12.386Zm-9.549,8.234h8.835a2.233,2.233,0,0,0,1.66-.507,2.164,2.164,0,0,0,.485-1.545v-.969a2.164,2.164,0,0,0-.485-1.545,2.235,2.235,0,0,0-1.66-.507h-8.535q-.3,0-.3.277Z" transform="translate(-501.915 -107.098)" fill="#fff"/><path d="M731.459,107.1a.449.449,0,0,1,.507.507v9.2a6.576,6.576,0,0,0,.15,1.534,2.072,2.072,0,0,0,.5.969,1.922,1.922,0,0,0,.935.507,6.138,6.138,0,0,0,1.488.15h6.389a6.138,6.138,0,0,0,1.488-.15,1.926,1.926,0,0,0,.935-.507,1.99,1.99,0,0,0,.484-.969,7.124,7.124,0,0,0,.138-1.534v-9.2a.449.449,0,0,1,.507-.507h2.514a.449.449,0,0,1,.507.507v9.549a10.017,10.017,0,0,1-.346,2.826,4.153,4.153,0,0,1-1.119,1.891,4.548,4.548,0,0,1-2.007,1.049,11.944,11.944,0,0,1-2.986.323H734.9a11.791,11.791,0,0,1-2.976-.323,4.542,4.542,0,0,1-1.995-1.049,4.239,4.239,0,0,1-1.13-1.891,9.738,9.738,0,0,1-.357-2.826v-9.549q0-.507.531-.507Z" transform="translate(-561.231 -107.099)" fill="#fff"/><path d="M827.57,107.1a4.785,4.785,0,0,1,.876.069,1.617,1.617,0,0,1,.646.265,1.94,1.94,0,0,1,.5.531,5.579,5.579,0,0,1,.45.888l4.8,11.071a.327.327,0,0,0,.323.208h.276a.327.327,0,0,0,.323-.208l4.8-11.071a5.525,5.525,0,0,1,.45-.888,1.955,1.955,0,0,1,.5-.531,1.617,1.617,0,0,1,.635-.265A4.594,4.594,0,0,1,843,107.1h2.468a1.946,1.946,0,0,1,1.614.542,3.132,3.132,0,0,1,.415,1.857v13.24q0,.508-.53.507h-2.352a.448.448,0,0,1-.507-.507V110.7c0-.154-.062-.231-.185-.231h-.208a.286.286,0,0,0-.3.185l-4.659,10.333a6.856,6.856,0,0,1-.565,1.049,3.293,3.293,0,0,1-.622.7,2,2,0,0,1-.761.392,3.88,3.88,0,0,1-1,.115H834.7a3.862,3.862,0,0,1-1-.115,1.987,1.987,0,0,1-.761-.392,3.284,3.284,0,0,1-.623-.7,6.836,6.836,0,0,1-.565-1.049l-4.66-10.333a.286.286,0,0,0-.3-.185h-.208c-.123,0-.184.077-.184.231v12.04a.448.448,0,0,1-.507.507h-2.353q-.53,0-.531-.507V109.5a3.137,3.137,0,0,1,.415-1.857,1.982,1.982,0,0,1,1.638-.542Z" transform="translate(-624.374 -107.099)" fill="#fff"/></g></svg>