<svg xmlns="http://www.w3.org/2000/svg" width="47" height="21" viewBox="0 0 47 21">
  <g id="live1" transform="translate(8788 879)">
    <g id="Group_248" data-name="Group 248">
      <path id="Rectangle_230" data-name="Rectangle 230" d="M10.5,0h26a10.5,10.5,0,0,1,0,21h-26a10.5,10.5,0,0,1,0-21Z" transform="translate(-8788 -879)" fill="#00c548"/>
      <path id="LIVE" d="M.82,0V-6.88H2.24V-1.2H5.12V0ZM6.2,0V-6.88H7.62V0Zm4.61,0L8.61-6.88h1.46l1.68,5.37h.05l1.66-5.37h1.43L12.69,0Zm5.08,0V-6.88h4.7v1.16H17.31v1.67h2.81v1.16H17.31v1.73h3.28V0Z" transform="translate(-8769 -865)" fill="#fff"/>
      <path id="Path_394" data-name="Path 394" d="M7.362,0,9.816,4.406,7.362,8.812H2.454L0,4.406,2.454,0Z" transform="translate(-8770.263 -867.369) rotate(150)" fill="#fff"/>
    </g>
  </g>
</svg>
