<?xml version="1.0" encoding="UTF-8" standalone="no"?>
<svg
   version="1.1"
   id="svg2"
   xml:space="preserve"
   width="243.24001"
   height="68.346664"
   viewBox="0 0 243.24001 68.346664"
   sodipodiNocname="neobase.eps"
   xmlnsInkscape="http://www.inkscape.org/namespaces/inkscape"
   xmlnsSodipodi="http://sodipodi.sourceforge.net/DTD/sodipodi-0.dtd"
   xmlns="http://www.w3.org/2000/svg"
   xmlnsSvg="http://www.w3.org/2000/svg"><defs
     id="defs6"><clipPath
       clipPathUnits="userSpaceOnUse"
       id="clipPath18"><path
         d="M 78.418,327.344 V 113.746 H 39.2109 V 472.461 L 0,510.348 V 75.8281 h 227.813 l -39.227,37.9179 h -70.859 v 122.055 l 33.043,-31.953 6.152,-5.93 8.691,-8.402 156.84,-151.6019 H 156.84 L 195.223,0 h 221.789 z"
         id="path16" /></clipPath><linearGradient
       x1="0"
       y1="0"
       x2="1"
       y2="0"
       gradientUnits="userSpaceOnUse"
       gradientTransform="matrix(417.013,0,0,403.078,0,255.173)"
       spreadMethod="pad"
       id="linearGradient32"><stop
         style="stop-opacity:1;stop-color:#f9d606"
         offset="0"
         id="stop20" /><stop
         style="stop-opacity:1;stop-color:#f7d307"
         offset="0.02"
         id="stop22" /><stop
         style="stop-opacity:1;stop-color:#e0bb10"
         offset="0.22"
         id="stop24" /><stop
         style="stop-opacity:1;stop-color:#d1aa15"
         offset="0.43"
         id="stop26" /><stop
         style="stop-opacity:1;stop-color:#c8a11f"
         offset="0.68"
         id="stop28" /><stop
         style="stop-opacity:1;stop-color:#c69e21"
         offset="1"
         id="stop30" /></linearGradient><clipPath
       clipPathUnits="userSpaceOnUse"
       id="clipPath42"><path
         d="m 376.605,185.336 v 213.609 h 39.227 V 40.2148 L 455.023,2.33203 V 436.848 H 227.309 l 39.211,-37.903 h 70.875 V 276.891 L 132.668,474.73 h 165.535 l -38.402,37.915 H 38.0117 Z"
         id="path40" /></clipPath><linearGradient
       x1="0"
       y1="0"
       x2="1"
       y2="0"
       gradientUnits="userSpaceOnUse"
       gradientTransform="matrix(417.013,0,0,403.078,38.0118,257.489)"
       spreadMethod="pad"
       id="linearGradient56"><stop
         style="stop-opacity:1;stop-color:#f9d606"
         offset="0"
         id="stop44" /><stop
         style="stop-opacity:1;stop-color:#f7d307"
         offset="0.02"
         id="stop46" /><stop
         style="stop-opacity:1;stop-color:#e0bb10"
         offset="0.22"
         id="stop48" /><stop
         style="stop-opacity:1;stop-color:#d1aa15"
         offset="0.43"
         id="stop50" /><stop
         style="stop-opacity:1;stop-color:#c8a11f"
         offset="0.68"
         id="stop52" /><stop
         style="stop-opacity:1;stop-color:#c69e21"
         offset="1"
         id="stop54" /></linearGradient><clipPath
       clipPathUnits="userSpaceOnUse"
       id="clipPath66"><path
         d="M 383.031,80.9805 73.8711,380.059 71.9922,431.715 381.172,132.617 Z"
         id="path64" /></clipPath><linearGradient
       x1="0"
       y1="0"
       x2="1"
       y2="0"
       gradientUnits="userSpaceOnUse"
       gradientTransform="matrix(221.773,-210.795,218.082,214.363,120.964,357.62)"
       spreadMethod="pad"
       id="linearGradient80"><stop
         style="stop-opacity:1;stop-color:#f9d606"
         offset="0"
         id="stop68" /><stop
         style="stop-opacity:1;stop-color:#f7d307"
         offset="0.02"
         id="stop70" /><stop
         style="stop-opacity:1;stop-color:#e0bb10"
         offset="0.22"
         id="stop72" /><stop
         style="stop-opacity:1;stop-color:#d1aa15"
         offset="0.43"
         id="stop74" /><stop
         style="stop-opacity:1;stop-color:#c8a11f"
         offset="0.68"
         id="stop76" /><stop
         style="stop-opacity:1;stop-color:#c69e21"
         offset="1"
         id="stop78" /></linearGradient><clipPath
       clipPathUnits="userSpaceOnUse"
       id="clipPath90"><path
         d="M 701.414,146.488 592.418,269.691 V 155.613 c 0.441,-7.437 -5.441,-13.812 -13.137,-14.238 -7.691,-0.426 -14.289,5.258 -14.726,12.695 -0.032,0.516 -0.032,1.028 0,1.543 v 150.36 c 0,10.402 14.136,20.718 26.402,6.832 L 697.992,191.801 v 114.172 c -0.441,7.437 5.442,13.808 13.137,14.238 7.691,0.426 14.289,-5.262 14.726,-12.699 0.032,-0.512 0.032,-1.028 0,-1.539 v -150.36 c -0.031,-5.234 -3.167,-9.984 -8.07,-12.211 -5.551,-2.679 -12.269,-1.414 -16.371,3.086 z"
         id="path88" /></clipPath><linearGradient
       x1="0"
       y1="0"
       x2="1"
       y2="0"
       gradientUnits="userSpaceOnUse"
       gradientTransform="matrix(925.319,-440.588,455.819,894.4,695.259,206.959)"
       spreadMethod="pad"
       id="linearGradient96"><stop
         style="stop-opacity:1;stop-color:#f9d606"
         offset="0"
         id="stop92" /><stop
         style="stop-opacity:1;stop-color:#c69e21"
         offset="1"
         id="stop94" /></linearGradient><clipPath
       clipPathUnits="userSpaceOnUse"
       id="clipPath106"><path
         d="M 901.297,142.211 H 759.926 V 244.785 H 901.297 V 216.93 H 788.883 v -46.594 h 112.414 z m 0,177.293 V 291.383 H 759.926 v 28.121 z"
         id="path104" /></clipPath><linearGradient
       x1="0"
       y1="0"
       x2="1"
       y2="0"
       gradientUnits="userSpaceOnUse"
       gradientTransform="matrix(925.319,-440.588,455.819,894.4,731.492,278.053)"
       spreadMethod="pad"
       id="linearGradient112"><stop
         style="stop-opacity:1;stop-color:#f9d606"
         offset="0"
         id="stop108" /><stop
         style="stop-opacity:1;stop-color:#c69e21"
         offset="1"
         id="stop110" /></linearGradient><clipPath
       clipPathUnits="userSpaceOnUse"
       id="clipPath122"><path
         d="m 1023.93,294.949 c -36.621,0 -66.309,-28.691 -66.309,-64.09 0,-35.398 29.688,-64.093 66.309,-64.093 36.62,0 66.31,28.695 66.31,64.093 0.05,35.348 -29.56,64.043 -66.13,64.09 -0.06,0 -0.12,0 -0.18,0 z m 96.45,-64.09 c 0,-51.492 -43.18,-93.23 -96.45,-93.23 -53.27,0 -96.453,41.738 -96.453,93.23 0,51.489 43.183,93.231 96.453,93.231 53.25,-0.051 96.4,-41.762 96.45,-93.231 z"
         id="path120" /></clipPath><linearGradient
       x1="0"
       y1="0"
       x2="1"
       y2="0"
       gradientUnits="userSpaceOnUse"
       gradientTransform="matrix(925.319,-440.588,455.819,894.4,769.235,352.113)"
       spreadMethod="pad"
       id="linearGradient128"><stop
         style="stop-opacity:1;stop-color:#f9d606"
         offset="0"
         id="stop124" /><stop
         style="stop-opacity:1;stop-color:#c69e21"
         offset="1"
         id="stop126" /></linearGradient><clipPath
       clipPathUnits="userSpaceOnUse"
       id="clipPath138"><path
         d="m 1259.25,169.145 c 13.79,-0.571 25.45,9.773 26.04,23.101 0.59,13.328 -10.12,24.598 -23.91,25.168 -0.71,0.027 -1.42,0.027 -2.13,0 h -80.58 v -48.269 z m 0,150.359 c 29.14,0.035 52.79,-22.774 52.83,-50.938 0.02,-14.343 -6.21,-28.031 -17.17,-37.707 21.51,-19.004 23.01,-51.265 3.35,-72.054 -10.01,-10.586 -24.17,-16.61 -39.01,-16.594 h -94.54 c -7.69,0 -13.93,6.012 -13.95,13.445 v 75.203 c 0.02,7.438 6.25,13.461 13.95,13.489 h 94.54 c 13.78,0.015 24.93,10.824 24.91,24.14 -0.01,13.293 -11.16,24.067 -24.91,24.082 h -94.54 c -7.69,-0.425 -14.29,5.258 -14.73,12.696 -0.44,7.437 5.44,13.812 13.14,14.238 0.53,0.031 1.06,0.031 1.59,0 z"
         id="path136" /></clipPath><linearGradient
       x1="0"
       y1="0"
       x2="1"
       y2="0"
       gradientUnits="userSpaceOnUse"
       gradientTransform="matrix(925.319,-440.588,455.819,894.4,806.855,425.929)"
       spreadMethod="pad"
       id="linearGradient144"><stop
         style="stop-opacity:1;stop-color:#f9d606"
         offset="0"
         id="stop140" /><stop
         style="stop-opacity:1;stop-color:#c69e21"
         offset="1"
         id="stop142" /></linearGradient><clipPath
       clipPathUnits="userSpaceOnUse"
       id="clipPath154"><path
         d="m 1334.22,160.988 c 9.85,21.735 61.52,144.809 72.52,154.946 2.15,2.152 5.07,3.429 8.16,3.57 3.1,-0.121 6.02,-1.402 8.16,-3.57 11.04,-10.137 62.66,-133.211 72.51,-154.946 7.35,-16.218 -18.24,-26.933 -25.44,-10.754 l -55.23,121.84 -55.18,-121.84 c -7.35,-16.179 -32.84,-5.464 -25.5,10.754 z"
         id="path152" /></clipPath><linearGradient
       x1="0"
       y1="0"
       x2="1"
       y2="0"
       gradientUnits="userSpaceOnUse"
       gradientTransform="matrix(925.319,-440.588,455.819,894.4,838.898,488.804)"
       spreadMethod="pad"
       id="linearGradient160"><stop
         style="stop-opacity:1;stop-color:#f9d606"
         offset="0"
         id="stop156" /><stop
         style="stop-opacity:1;stop-color:#c69e21"
         offset="1"
         id="stop158" /></linearGradient><clipPath
       clipPathUnits="userSpaceOnUse"
       id="clipPath170"><path
         d="m 1629.83,281.508 c -12.41,10.551 -28.54,16.09 -45.05,15.472 -5.27,-0.429 -10.41,-1.71 -15.24,-3.792 -4.05,-1.735 -7.64,-4.344 -10.49,-7.625 -4.2,-4.754 -6.18,-10.977 -5.47,-17.192 2.6,-14.195 22.26,-19.793 41.91,-25.082 32.52,-9.125 64.72,-17.984 60.79,-59.555 v -0.218 c -1.2,-8.786 -4.83,-17.094 -10.49,-24.071 -7.46,-8.465 -17.27,-14.703 -28.27,-17.984 -11.9,-3.438 -24.43,-4.313 -36.71,-2.555 -23.86,3.199 -46.29,12.86 -64.71,27.86 l 18.24,22.039 c 14.27,-11.43 31.54,-18.813 49.89,-21.336 8.13,-1.231 16.45,-0.719 24.35,1.5 5.55,1.476 10.49,4.554 14.18,8.816 2.32,2.649 3.78,5.899 4.2,9.344 1.28,17.633 -18.88,23.32 -39.58,29.137 -29.1,7.847 -58.42,16.222 -63.17,49.418 v 1.011 c -1.1,13.645 3.32,27.168 12.32,37.735 5.69,6.261 12.64,11.347 20.43,14.941 8.13,3.535 16.83,5.684 25.72,6.348 24.13,1.211 47.81,-6.692 66.03,-22.039 z"
         id="path168" /></clipPath><linearGradient
       x1="0"
       y1="0"
       x2="1"
       y2="0"
       gradientUnits="userSpaceOnUse"
       gradientTransform="matrix(925.319,-440.588,455.819,894.4,879.951,569.357)"
       spreadMethod="pad"
       id="linearGradient176"><stop
         style="stop-opacity:1;stop-color:#f9d606"
         offset="0"
         id="stop172" /><stop
         style="stop-opacity:1;stop-color:#c69e21"
         offset="1"
         id="stop174" /></linearGradient><clipPath
       clipPathUnits="userSpaceOnUse"
       id="clipPath186"><path
         d="M 0,0 H 1824 V 513 H 0 Z"
         id="path184" /></clipPath><clipPath
       clipPathUnits="userSpaceOnUse"
       id="clipPath192"><path
         d="m 1824.29,142.211 h -141.37 v 102.574 h 141.37 V 216.93 h -112.46 v -46.594 h 112.46 z m 0,177.293 v -28.121 h -141.37 v 28.121 z"
         id="path190" /></clipPath><linearGradient
       x1="0"
       y1="0"
       x2="1"
       y2="0"
       gradientUnits="userSpaceOnUse"
       gradientTransform="matrix(925.319,-440.588,455.819,894.4,911.73,631.714)"
       spreadMethod="pad"
       id="linearGradient198"><stop
         style="stop-opacity:1;stop-color:#f9d606"
         offset="0"
         id="stop194" /><stop
         style="stop-opacity:1;stop-color:#c69e21"
         offset="1"
         id="stop196" /></linearGradient></defs><sodipodiNamedview
     id="namedview4"
     pagecolor="#ffffff"
     bordercolor="#666666"
     borderopacity="1.0"
     inkscapePageshadow="2"
     inkscapePageopacity="0.0"
     inkscapePagecheckerboard="0" /><g
     id="g8"
     inkscapeGroupmode="layer"
     inkscapeLabel="ink_ext_XXXXXX"
     transform="matrix(1.3333333,0,0,-1.3333333,0,68.346667)"><g
       id="g10"
       transform="scale(0.1)"><g
         id="g12"><g
           id="g14"
           clip-path="url(#clipPath18)"><path
             d="M 78.418,327.344 V 113.746 H 39.2109 V 472.461 L 0,510.348 V 75.8281 h 227.813 l -39.227,37.9179 h -70.859 v 122.055 l 33.043,-31.953 6.152,-5.93 8.691,-8.402 156.84,-151.6019 H 156.84 L 195.223,0 H 417.012 L 78.418,327.344"
             style="fill:url(#linearGradient32);fill-opacity:1;fill-rule:nonzero;stroke:none"
             id="path34" /></g></g><g
         id="g36"><g
           id="g38"
           clip-path="url(#clipPath42)"><path
             d="m 376.605,185.336 v 213.609 h 39.227 V 40.2148 L 455.023,2.33203 V 436.848 H 227.309 l 39.211,-37.903 h 70.875 V 276.891 L 132.668,474.73 h 165.535 l -38.402,37.915 H 38.0117 L 376.605,185.336"
             style="fill:url(#linearGradient56);fill-opacity:1;fill-rule:nonzero;stroke:none"
             id="path58" /></g></g><g
         id="g60"><g
           id="g62"
           clip-path="url(#clipPath66)"><path
             d="M 383.031,80.9805 73.8711,380.059 71.9922,431.715 381.172,132.617 383.031,80.9805"
             style="fill:url(#linearGradient80);fill-opacity:1;fill-rule:nonzero;stroke:none"
             id="path82" /></g></g><g
         id="g84"><g
           id="g86"
           clip-path="url(#clipPath90)"><path
             d="M 701.414,146.488 592.418,269.691 V 155.613 c 0.441,-7.437 -5.441,-13.812 -13.137,-14.238 -7.691,-0.426 -14.289,5.258 -14.726,12.695 -0.032,0.516 -0.032,1.028 0,1.543 v 150.36 c 0,10.402 14.136,20.718 26.402,6.832 L 697.992,191.801 v 114.172 c -0.441,7.437 5.442,13.808 13.137,14.238 7.691,0.426 14.289,-5.262 14.726,-12.699 0.032,-0.512 0.032,-1.028 0,-1.539 v -150.36 c -0.031,-5.234 -3.167,-9.984 -8.07,-12.211 -5.551,-2.679 -12.269,-1.414 -16.371,3.086"
             style="fill:url(#linearGradient96);fill-opacity:1;fill-rule:nonzero;stroke:none"
             id="path98" /></g></g><g
         id="g100"><g
           id="g102"
           clip-path="url(#clipPath106)"><path
             d="M 901.297,142.211 H 759.926 V 244.785 H 901.297 V 216.93 H 788.883 v -46.594 h 112.414 z m 0,177.293 V 291.383 H 759.926 v 28.121 h 141.371"
             style="fill:url(#linearGradient112);fill-opacity:1;fill-rule:nonzero;stroke:none"
             id="path114" /></g></g><g
         id="g116"><g
           id="g118"
           clip-path="url(#clipPath122)"><path
             d="m 1023.93,294.949 c -36.621,0 -66.309,-28.691 -66.309,-64.09 0,-35.398 29.688,-64.093 66.309,-64.093 36.62,0 66.31,28.695 66.31,64.093 0.05,35.348 -29.56,64.043 -66.13,64.09 -0.06,0 -0.12,0 -0.18,0 z m 96.45,-64.09 c 0,-51.492 -43.18,-93.23 -96.45,-93.23 -53.27,0 -96.453,41.738 -96.453,93.23 0,51.489 43.183,93.231 96.453,93.231 53.25,-0.051 96.4,-41.762 96.45,-93.231"
             style="fill:url(#linearGradient128);fill-opacity:1;fill-rule:nonzero;stroke:none"
             id="path130" /></g></g><g
         id="g132"><g
           id="g134"
           clip-path="url(#clipPath138)"><path
             d="m 1259.25,169.145 c 13.79,-0.571 25.45,9.773 26.04,23.101 0.59,13.328 -10.12,24.598 -23.91,25.168 -0.71,0.027 -1.42,0.027 -2.13,0 h -80.58 v -48.269 z m 0,150.359 c 29.14,0.035 52.79,-22.774 52.83,-50.938 0.02,-14.343 -6.21,-28.031 -17.17,-37.707 21.51,-19.004 23.01,-51.265 3.35,-72.054 -10.01,-10.586 -24.17,-16.61 -39.01,-16.594 h -94.54 c -7.69,0 -13.93,6.012 -13.95,13.445 v 75.203 c 0.02,7.438 6.25,13.461 13.95,13.489 h 94.54 c 13.78,0.015 24.93,10.824 24.91,24.14 -0.01,13.293 -11.16,24.067 -24.91,24.082 h -94.54 c -7.69,-0.425 -14.29,5.258 -14.73,12.696 -0.44,7.437 5.44,13.812 13.14,14.238 0.53,0.031 1.06,0.031 1.59,0 h 94.54"
             style="fill:url(#linearGradient144);fill-opacity:1;fill-rule:nonzero;stroke:none"
             id="path146" /></g></g><g
         id="g148"><g
           id="g150"
           clip-path="url(#clipPath154)"><path
             d="m 1334.22,160.988 c 9.85,21.735 61.52,144.809 72.52,154.946 2.15,2.152 5.07,3.429 8.16,3.57 3.1,-0.121 6.02,-1.402 8.16,-3.57 11.04,-10.137 62.66,-133.211 72.51,-154.946 7.35,-16.218 -18.24,-26.933 -25.44,-10.754 l -55.23,121.84 -55.18,-121.84 c -7.35,-16.179 -32.84,-5.464 -25.5,10.754 v 0"
             style="fill:url(#linearGradient160);fill-opacity:1;fill-rule:nonzero;stroke:none"
             id="path162" /></g></g><g
         id="g164"><g
           id="g166"
           clip-path="url(#clipPath170)"><path
             d="m 1629.83,281.508 c -12.41,10.551 -28.54,16.09 -45.05,15.472 -5.27,-0.429 -10.41,-1.71 -15.24,-3.792 -4.05,-1.735 -7.64,-4.344 -10.49,-7.625 -4.2,-4.754 -6.18,-10.977 -5.47,-17.192 2.6,-14.195 22.26,-19.793 41.91,-25.082 32.52,-9.125 64.72,-17.984 60.79,-59.555 v -0.218 c -1.2,-8.786 -4.83,-17.094 -10.49,-24.071 -7.46,-8.465 -17.27,-14.703 -28.27,-17.984 -11.9,-3.438 -24.43,-4.313 -36.71,-2.555 -23.86,3.199 -46.29,12.86 -64.71,27.86 l 18.24,22.039 c 14.27,-11.43 31.54,-18.813 49.89,-21.336 8.13,-1.231 16.45,-0.719 24.35,1.5 5.55,1.476 10.49,4.554 14.18,8.816 2.32,2.649 3.78,5.899 4.2,9.344 1.28,17.633 -18.88,23.32 -39.58,29.137 -29.1,7.847 -58.42,16.222 -63.17,49.418 v 1.011 c -1.1,13.645 3.32,27.168 12.32,37.735 5.69,6.261 12.64,11.347 20.43,14.941 8.13,3.535 16.83,5.684 25.72,6.348 24.13,1.211 47.81,-6.692 66.03,-22.039 l -18.88,-22.172"
             style="fill:url(#linearGradient176);fill-opacity:1;fill-rule:nonzero;stroke:none"
             id="path178" /></g></g><g
         id="g180"><g
           id="g182"
           clip-path="url(#clipPath186)"><g
             id="g188"
             clip-path="url(#clipPath192)"><path
               d="m 1682,142 v 103 h 142 v -29 h -112 v -45 h 112 v -29 z m 0,178 h 142 v -29 h -142 z"
               style="fill:url(#linearGradient198);fill-opacity:1;fill-rule:nonzero;stroke:none"
               id="path200" /></g></g></g></g></g></svg>
